# xmcd
#
# Track frame offsets:
#	150
#	11691
#	22874
#	36194
#	54247
#
# Disc length: 966 seconds
#
# Revision: 0
# Processed by: cddbd v1.5.2PL0 Copyright (c) Steve Scherf et al.
# Submitted via: FairStars CD Ripper 1.90
#
DISCID=2e03c405
DTITLE=The Urban Voodoo Machine  - Ladies And Gentlemen!
DYEAR=2005
DGENRE=Bourbon Soaked Gypsy
TTITLE0=No Bail Blues
TTITLE1=Killer Sound
TTITLE2=Love Song #666
TTITLE3=Alone In The City
TTITLE4=Police Paranoia
EXTD=
EXTT0=
EXTT1=
EXTT2=
EXTT3=
EXTT4=
PLAYORDER=
